<?xml version="1.0" encoding="UTF-8" standalone="no"?>
<svg
   xmlns:dc="http://purl.org/dc/elements/1.1/"
   xmlns:cc="http://creativecommons.org/ns#"
   xmlns:rdf="http://www.w3.org/1999/02/22-rdf-syntax-ns#"
   xmlns:svg="http://www.w3.org/2000/svg"
   xmlns="http://www.w3.org/2000/svg"
   xmlns:sodipodi="http://sodipodi.sourceforge.net/DTD/sodipodi-0.dtd"
   xmlns:inkscape="http://www.inkscape.org/namespaces/inkscape"
   width="48"
   height="48"
   version="1.1"
   id="svg4"
   sodipodi:docname="launchsvg.svg"
   inkscape:version="0.92.2 2405546, 2018-03-11">
  <metadata
     id="metadata10">
    <rdf:RDF>
      <cc:Work
         rdf:about="">
        <dc:format>image/svg+xml</dc:format>
        <dc:type
           rdf:resource="http://purl.org/dc/dcmitype/StillImage" />
        <dc:title />
      </cc:Work>
    </rdf:RDF>
  </metadata>
  <defs
     id="defs8" />
  <sodipodi:namedview
     pagecolor="#3c3743"
     bordercolor="#666666"
     borderopacity="1"
     objecttolerance="10"
     gridtolerance="10"
     guidetolerance="10"
     inkscape:pageopacity="0"
     inkscape:pageshadow="2"
     inkscape:window-width="2560"
     inkscape:window-height="1389"
     id="namedview6"
     showgrid="false"
     inkscape:zoom="13.906433"
     inkscape:cx="66.890699"
     inkscape:cy="11.64229"
     inkscape:window-x="0"
     inkscape:window-y="0"
     inkscape:window-maximized="1"
     inkscape:current-layer="svg4"
     inkscape:snap-global="true"
     inkscape:object-paths="true" />
  <path
     style="fill:#ceffe1;stroke-width:0.64406782;fill-opacity:1"
     d="M 15.880859 10.339844 C 12.596716 10.339844 9.9316406 13.000673 9.9316406 16.267578 C 9.9316406 19.551718 12.613956 22.223119 15.880859 22.197266 L 18.660156 22.197266 L 18.660156 26.837891 L 18.660156 29.986328 L 18.660156 32.748047 L 18.660156 37.988281 C 20.531223 36.995385 21.808594 35.028987 21.808594 32.748047 L 21.808594 29.986328 L 21.808594 26.837891 L 21.808594 22.197266 L 26.431641 22.197266 L 26.433594 22.197266 L 26.433594 32.775391 C 26.44383 35.043613 27.703362 36.99711 29.560547 37.986328 L 29.560547 32.748047 L 29.560547 29.986328 L 29.560547 26.837891 L 29.560547 22.197266 L 32.341797 22.197266 C 35.625942 22.197266 38.271486 19.551718 38.271484 16.267578 C 38.271487 13.000673 35.625939 10.339844 32.341797 10.339844 C 29.066277 10.339844 26.414402 13.000673 26.431641 16.267578 L 26.431641 19.066406 L 21.808594 19.066406 L 21.808594 16.267578 C 21.808596 13.000673 19.147762 10.339844 15.880859 10.339844 z M 15.880859 13.488281 C 17.406563 13.488281 18.660156 14.724306 18.660156 16.25 L 18.660156 19.048828 L 15.880859 19.048828 C 14.329296 19.048828 13.099609 17.801572 13.099609 16.25 C 13.099609 14.724306 14.329296 13.488281 15.880859 13.488281 z M 32.341797 13.488281 C 33.893361 13.488281 35.123047 14.724306 35.123047 16.25 C 35.123049 17.801572 33.893361 19.048828 32.341797 19.048828 L 29.560547 19.048828 L 29.560547 16.25 C 29.560548 14.724306 30.816093 13.488281 32.341797 13.488281 z "
     id="path2" />
</svg>
